<?xml version="1.0" encoding="UTF-8" standalone="no"?>
<!-- Created with Inkscape (http://www.inkscape.org/) -->

<svg
   xmlns:dc="http://purl.org/dc/elements/1.1/"
   xmlns:cc="http://creativecommons.org/ns#"
   xmlns:rdf="http://www.w3.org/1999/02/22-rdf-syntax-ns#"
   xmlns:svg="http://www.w3.org/2000/svg"
   xmlns="http://www.w3.org/2000/svg"
   xmlns:sodipodi="http://sodipodi.sourceforge.net/DTD/sodipodi-0.dtd"
   xmlns:inkscape="http://www.inkscape.org/namespaces/inkscape"
   width="744.09448819"
   height="1052.3622047"
   id="svg2"
   version="1.1"
   inkscape:version="0.48.4 r9939"
   sodipodi:docname="New document 1">
  <defs
     id="defs4" />
  <sodipodi:namedview
     id="base"
     pagecolor="#ffffff"
     bordercolor="#666666"
     borderopacity="1.0"
     inkscape:pageopacity="0.0"
     inkscape:pageshadow="2"
     inkscape:zoom="0.35"
     inkscape:cx="1314.4194"
     inkscape:cy="393.70517"
     inkscape:document-units="px"
     inkscape:current-layer="layer1"
     showgrid="true"
     showguides="true"
     inkscape:guide-bbox="true"
     inkscape:window-width="1315"
     inkscape:window-height="744"
     inkscape:window-x="51"
     inkscape:window-y="24"
     inkscape:window-maximized="1">
    <sodipodi:guide
       orientation="0,1"
       position="360,600"
       id="guide2985" />
    <inkscape:grid
       type="xygrid"
       id="grid2987" />
    <sodipodi:guide
       orientation="0,1"
       position="380,1000"
       id="guide2989" />
    <sodipodi:guide
       orientation="1,0"
       position="200,960"
       id="guide2991" />
    <sodipodi:guide
       orientation="1,0"
       position="500,820"
       id="guide2993" />
    <sodipodi:guide
       orientation="0,1"
       position="390,730"
       id="guide2997" />
  </sodipodi:namedview>
  <metadata
     id="metadata7">
    <rdf:RDF>
      <cc:Work
         rdf:about="">
        <dc:format>image/svg+xml</dc:format>
        <dc:type
           rdf:resource="http://purl.org/dc/dcmitype/StillImage" />
        <dc:title></dc:title>
      </cc:Work>
    </rdf:RDF>
  </metadata>
  <g
     inkscape:label="Layer 1"
     inkscape:groupmode="layer"
     id="layer1">
    <g
       id="g3089"
       inkscape:export-filename="/home/kukuh/playground/playground-web/images/blue-person.png"
       inkscape:export-xdpi="100"
       inkscape:export-ydpi="100">
      <rect
         y="52.362183"
         x="200"
         height="400"
         width="300"
         id="rect2995"
         style="fill:none;stroke:#000000;stroke-width:2" />
      <path
         sodipodi:nodetypes="cc"
         inkscape:connector-curvature="0"
         id="path2999"
         d="m 200,348.36218 c 88.58291,-76.11396 187.19008,-85.39949 300,0"
         style="fill:none;stroke:#000000;stroke-width:2;stroke-linecap:butt;stroke-linejoin:miter;stroke-opacity:1" />
      <path
         transform="matrix(1.3968456,0,0,1.3968456,-128.89144,-34.509412)"
         d="m 400,157.36218 a 55,55 0 1 1 -110,0 55,55 0 1 1 110,0 z"
         sodipodi:ry="55"
         sodipodi:rx="55"
         sodipodi:cy="157.36218"
         sodipodi:cx="345"
         id="path3001"
         style="fill:none;stroke:#000000;stroke-width:2"
         sodipodi:type="arc" />
      <path
         inkscape:connector-curvature="0"
         id="path3013"
         d="m 496.08886,343.77737 c -3.66753,-3.06711 -23.17141,-16.07544 -31.78571,-21.19984 -71.40227,-42.47515 -141.103,-47.4234 -206.78572,-14.68029 -16.43069,8.19077 -32.50051,18.53738 -47.55923,30.62117 -3.69957,2.9687 -7.12827,5.63945 -7.61934,5.93501 -0.71312,0.42921 -0.89286,-28.80349 -0.89286,-145.21905 l 0,-145.756443 148.57143,0 148.57143,0 0,146.071433 c 0,80.33928 -0.0804,146.05987 -0.17857,146.04574 -0.0982,-0.0141 -1.14286,-0.83211 -2.32143,-1.81773 z M 367.83493,262.31423 c 8.02582,-1.43342 13.2799,-3.27887 21.61293,-7.5913 16.80299,-8.69574 29.61292,-22.93256 36.70126,-40.7894 6.69491,-16.86572 6.99366,-37.15865 0.8084,-54.91135 -8.25694,-23.69877 -28.83215,-42.79192 -53.36866,-49.52445 -9.88183,-2.71146 -25.96335,-3.20394 -36.07143,-1.10464 -16.56346,3.43998 -29.22234,10.42352 -41.15191,22.70232 -29.58165,30.44764 -28.97619,79.51872 1.35537,109.85005 18.27828,18.27815 43.82496,26.06405 70.11404,21.36877 z"
         style="fill:#0169c9;fill-opacity:1;stroke:#000000;stroke-width:1.42857145999999990" />
      <path
         inkscape:connector-curvature="0"
         id="path3015"
         d="m 201.48329,400.08507 0.0373,-51.25 9.63001,-7.68053 c 16.99281,-13.5528 37.33814,-26.21432 55.29541,-34.41202 38.12092,-17.40263 78.6371,-21.86697 119.28572,-13.14369 33.87013,7.2686 73.09608,26.04816 106.96428,51.20952 l 5.89286,4.37793 0,51.07439 0,51.0744 -148.57143,0 -148.57143,0 0.0373,-51.25 0,0 z"
         style="fill:#cccccf;fill-opacity:1;stroke:#000000;stroke-width:1.42857146" />
      <path
         inkscape:connector-curvature="0"
         id="path3017"
         d="m 345.0917,259.81053 c -25.25514,-2.66677 -48.00178,-18.59187 -59.54761,-41.68975 -5.61967,-11.24237 -8.5084,-27.61074 -7.08381,-40.13887 4.41005,-38.78277 35.821,-67.39646 74.05307,-67.45838 15.63518,-0.0253 28.38783,3.62634 40.87534,11.70446 22.62473,14.63586 35.30089,38.98281 34.30686,65.89279 -0.5382,14.57014 -4.4269,26.7382 -12.3511,38.64753 -15.37357,23.10506 -42.68957,35.95269 -70.25275,33.04222 l 0,0 z"
         style="fill:#cccccf;fill-opacity:1;stroke:#000000;stroke-width:1.42857146" />
    </g>
    <path
       style="fill:#980101;fill-opacity:1;stroke:none;stroke-width:1.42857145999999990"
       d="m 1109.0229,-101.2887 c -3.6676,-3.06711 -23.1714,-16.07544 -31.7857,-21.19984 -71.4023,-42.47515 -141.10302,-47.4234 -206.78574,-14.68029 -16.43069,8.19077 -32.50051,18.53738 -47.55923,30.62117 -3.69957,2.9687 -7.12827,5.63945 -7.61934,5.93501 -0.71312,0.42921 -0.89286,-28.80349 -0.89286,-145.21905 l 0,-145.75644 148.57143,0 148.57144,0 0,146.07143 c 0,80.33928 -0.08,146.059871 -0.1786,146.045741 -0.098,-0.0141 -1.1429,-0.832111 -2.3214,-1.817731 z m -128.25394,-81.46314 c 8.02582,-1.43342 13.2799,-3.27887 21.61294,-7.5913 16.803,-8.69574 29.6129,-22.93256 36.7013,-40.7894 6.6949,-16.86572 6.9936,-37.15865 0.8084,-54.91135 -8.257,-23.69877 -28.8322,-42.79192 -53.36871,-49.52445 -9.88183,-2.71146 -25.96335,-3.20394 -36.07143,-1.10464 -16.56346,3.43998 -29.22234,10.42352 -41.15191,22.70232 -29.58165,30.44764 -28.97619,79.51872 1.35537,109.85005 18.27828,18.27815 43.82496,26.06405 70.11404,21.36877 z"
       id="path3013-8"
       inkscape:connector-curvature="0" />
    <path
       style="fill:#cccccf;fill-opacity:1;stroke:none;stroke-width:1.42857145999999990"
       d="m 814.41732,-44.980999 0.0373,-51.25 9.63001,-7.680531 c 16.99281,-13.5528 37.33814,-26.21432 55.29541,-34.41202 38.12092,-17.40263 78.6371,-21.86697 119.28572,-13.14369 33.87014,7.2686 73.09604,26.04816 106.96424,51.20952 l 5.8929,4.377931 0,51.07439 0,51.0743997 -148.57143,0 -148.57143,0 0.0373,-51.2499997 0,0 z"
       id="path3015-9"
       inkscape:connector-curvature="0" />
    <path
       style="fill:#cccccf;fill-opacity:1;stroke:none;stroke-width:1.42857145999999990"
       d="m 958.02573,-185.25554 c -25.25514,-2.66677 -48.00178,-18.59187 -59.54761,-41.68975 -5.61967,-11.24237 -8.5084,-27.61074 -7.08381,-40.13887 4.41005,-38.78277 35.821,-67.39646 74.05307,-67.45838 15.63518,-0.0253 28.38783,3.62634 40.87532,11.70446 22.6248,14.63586 35.3009,38.98281 34.3069,65.89279 -0.5382,14.57014 -4.4269,26.7382 -12.3511,38.64753 -15.3736,23.10506 -42.68959,35.95269 -70.25277,33.04222 l 0,0 z"
       id="path3017-6"
       inkscape:connector-curvature="0" />
    <g
       id="g3097"
       inkscape:export-filename="/home/kukuh/playground/playground-web/images/red-person.png"
       inkscape:export-xdpi="100"
       inkscape:export-ydpi="100">
      <rect
         y="578.63635"
         x="920.20306"
         height="400"
         width="300"
         id="rect2995-7"
         style="fill:none;stroke:#000000;stroke-width:2" />
      <path
         sodipodi:nodetypes="cc"
         inkscape:connector-curvature="0"
         id="path2999-0"
         d="m 920.20305,874.63635 c 88.58295,-76.11396 187.19015,-85.39949 300.00005,0"
         style="fill:none;stroke:#000000;stroke-width:2;stroke-linecap:butt;stroke-linejoin:miter;stroke-opacity:1" />
      <path
         transform="matrix(1.3968456,0,0,1.3968456,591.31161,491.76476)"
         d="m 400,157.36218 a 55,55 0 1 1 -110,0 55,55 0 1 1 110,0 z"
         sodipodi:ry="55"
         sodipodi:rx="55"
         sodipodi:cy="157.36218"
         sodipodi:cx="345"
         id="path3001-6"
         style="fill:none;stroke:#000000;stroke-width:2"
         sodipodi:type="arc" />
      <path
         inkscape:connector-curvature="0"
         id="path3013-2"
         d="m 1216.292,870.05154 c -3.6676,-3.06711 -23.1714,-16.07544 -31.7857,-21.19984 -71.4023,-42.47515 -141.1031,-47.4234 -206.78582,-14.68029 -16.43069,8.19077 -32.50051,18.53738 -47.55923,30.62117 -3.69957,2.9687 -7.12827,5.63945 -7.61934,5.93501 -0.71312,0.42921 -0.89286,-28.80349 -0.89286,-145.21905 l 0,-145.75644 148.57145,0 148.5715,0 0,146.07143 c 0,80.33928 -0.08,146.05987 -0.1786,146.04574 -0.098,-0.0141 -1.1429,-0.83211 -2.3214,-1.81773 z M 1088.038,788.5884 c 8.0259,-1.43342 13.2799,-3.27887 21.613,-7.5913 16.803,-8.69574 29.6129,-22.93256 36.7012,-40.7894 6.6949,-16.86572 6.9937,-37.15865 0.8084,-54.91135 -8.2569,-23.69877 -28.8321,-42.79192 -53.3686,-49.52445 -9.8819,-2.71146 -25.9634,-3.20394 -36.0715,-1.10464 -16.5634,3.43998 -29.2223,10.42352 -41.1519,22.70232 -29.58168,30.44764 -28.97622,79.51872 1.3553,109.85005 18.2784,18.27815 43.8251,26.06405 70.1141,21.36877 z"
         style="fill:#980101;fill-opacity:1;stroke:#000000;stroke-width:1.42857145999999990" />
      <path
         inkscape:connector-curvature="0"
         id="path3015-6"
         d="m 921.68634,926.35924 0.0373,-51.25 9.63001,-7.68053 c 16.99281,-13.5528 37.33814,-26.21432 55.29541,-34.41202 38.12094,-17.40263 78.63714,-21.86697 119.28574,-13.14369 33.8702,7.2686 73.0961,26.04816 106.9643,51.20952 l 5.8929,4.37793 0,51.07439 0,51.0744 -148.5715,0 -148.57144,0 0.0373,-51.25 0,0 z"
         style="fill:#cccccf;fill-opacity:1;stroke:#000000;stroke-width:1.42857146" />
      <path
         inkscape:connector-curvature="0"
         id="path3017-8"
         d="m 1065.2948,786.0847 c -25.2551,-2.66677 -48.0018,-18.59187 -59.5477,-41.68975 -5.6196,-11.24237 -8.50836,-27.61074 -7.08377,-40.13887 4.41007,-38.78277 35.82107,-67.39646 74.05317,-67.45838 15.6351,-0.0253 28.3878,3.62634 40.8753,11.70446 22.6247,14.63586 35.3009,38.98281 34.3069,65.89279 -0.5382,14.57014 -4.4269,26.7382 -12.3511,38.64753 -15.3736,23.10506 -42.6896,35.95269 -70.2528,33.04222 l 0,0 z"
         style="fill:#cccccf;fill-opacity:1;stroke:#000000;stroke-width:1.42857146" />
    </g>
  </g>
</svg>
